<?xml version="1.0" encoding="UTF-8"?>
<svg width="120px" height="30px" viewBox="0 0 120 30" version="1.1" xmlns="http://www.w3.org/2000/svg" xmlns:xlink="http://www.w3.org/1999/xlink">
    <!-- Generator: Sketch 45.1 (43504) - http://www.bohemiancoding.com/sketch -->
    <title>Normform</title>
    <desc>Created with Sketch.</desc>
    <defs></defs>
    <g id="Page-1" stroke="none" stroke-width="1" fill="none" fill-rule="evenodd">
        <g id="Dribbble-Shot" transform="translate(-18.000000, -18.000000)" fill="#737373">
            <g id="Header">
                <path d="M45.68,19.48 C45.68,19.7200012 45.3900029,19.8300001 44.81,19.81 L43.46,19.78 C43.0199978,19.78 42.7200008,19.9299985 42.56,20.23 L42.32,20.92 L41.87,22.06 L35.87,38.02 C35.7699995,38.220001 35.620001,38.5499977 35.42,39.01 L35.24,39.49 C35.0599991,39.9500023 34.9200005,40.18 34.82,40.18 C34.6399991,40.18 34.4900006,39.9200026 34.37,39.4 L29.63,20.29 L23.72,36.7 C23.1999974,38.1400072 22.94,38.9499991 22.94,39.13 C22.94,39.3700012 23.2699967,39.49 23.93,39.49 L24.29,39.49 C24.4500008,39.49 24.6099992,39.4800001 24.77,39.46 L25.01,39.46 C25.6900034,39.46 26.03,39.559999 26.03,39.76 C26.03,39.960001 25.8800015,40.06 25.58,40.06 C25.4399993,40.06 25.1600021,40.0500001 24.74,40.03 C23.8999958,39.9899998 23.0600042,39.97 22.22,39.97 C22.1199995,39.97 21.8000027,39.9799999 21.26,40 C20.7199973,40.0200001 20.2300022,40.03 19.79,40.03 L19.1,40.03 C18.7599983,40.03 18.59,39.9500008 18.59,39.79 C18.59,39.6299992 18.8299976,39.5200003 19.31,39.46 L19.7,39.46 C19.8000005,39.46 20.1599969,39.4400002 20.78,39.4 C21.4000031,39.3599998 21.8199989,39.1700017 22.04,38.83 C22.1200004,38.6499991 22.2399992,38.3700019 22.4,37.99 L22.97,36.49 L28.85,20.23 L28.97,19.99 C28.97,19.8299992 28.6900028,19.75 28.13,19.75 C27.1699952,19.75 26.590001,19.7599999 26.39,19.78 L25.91,19.78 C25.509998,19.78 25.31,19.6700011 25.31,19.45 C25.31,19.2099988 25.4899982,19.09 25.85,19.09 C25.9500005,19.09 26.1799982,19.0999999 26.54,19.12 C27.2600036,19.1600002 28.3599926,19.18 29.84,19.18 C30.9800057,19.18 31.749998,19.1600002 32.15,19.12 L36.29,35.17 L41.12,22.03 C41.5400021,20.8899943 41.75,20.220001 41.75,20.02 C41.75,19.8399991 41.6100014,19.75 41.33,19.75 C41.3900003,19.75 41.0700035,19.7599999 40.37,19.78 L39.32,19.81 C38.8999979,19.8300001 38.69,19.740001 38.69,19.54 C38.69,19.2999988 38.8999979,19.18 39.32,19.18 L42.95,19.24 L43.52,19.24 C43.8200015,19.2199999 44.0999987,19.21 44.36,19.21 L45.29,19.21 C45.5500013,19.21 45.68,19.2999991 45.68,19.48 Z M53.84,31.93 C53.84,34.2700117 52.7700107,36.3799906 50.63,38.26 C48.9499916,39.7400074 47.2000091,40.48 45.38,40.48 C44.1399938,40.48 43.120004,40.0500043 42.32,39.19 C41.519996,38.3299957 41.12,37.2200068 41.12,35.86 C41.12,34.6999942 41.4499967,33.5100061 42.11,32.29 C42.7700033,31.0699939 43.6499945,30.0300043 44.75,29.17 C46.4700086,27.8299933 48.129992,27.16 49.73,27.16 C50.9500061,27.16 51.9399962,27.5999956 52.7,28.48 C53.4600038,29.3600044 53.84,30.5099929 53.84,31.93 Z M51.53,29.98 C51.53,28.4599924 50.8500068,27.7 49.49,27.7 C47.8299917,27.7 46.3900061,28.8899881 45.17,31.27 C44.0099942,33.5500114 43.43,35.68999 43.43,37.69 C43.43,39.1900075 44.0999933,39.94 45.44,39.94 C47.1200084,39.94 48.5199944,38.8600108 49.64,36.7 C50.9000063,34.2599878 51.53,32.0200102 51.53,29.98 Z M66.59,28.48 C66.59,28.880002 66.4600013,29.2249986 66.2,29.515 C65.9399987,29.8050014 65.6400017,29.95 65.3,29.95 C64.9799984,29.95 64.82,29.8400011 64.82,29.62 L64.88,29.32 C64.9200002,29.1999994 64.94,29.0900005 64.94,28.99 C64.94,28.5099976 64.7000024,28.27 64.22,28.27 C63.6399971,28.27 62.8300052,28.8299944 61.79,29.95 C60.7499948,31.0700056 59.7700046,32.6399899 58.85,34.66 L56.69,39.4 C56.489999,39.8600023 56.3200007,40.09 56.18,40.09 C55.779998,40.0299997 55.4700011,40 55.25,40 C54.9099983,40 54.640001,40.0199998 54.44,40.06 L54.26,40.06 C54.0799991,40.06 53.99,40.0200004 53.99,39.94 C53.99,39.9199999 54.0199997,39.8800003 54.08,39.82 L54.23,39.52 L59.3,28 C59.3,27.8399992 59.1700013,27.76 58.91,27.76 L58.79,27.76 C58.7099996,27.7800001 58.5800009,27.79 58.4,27.79 L58.1,27.79 C57.7999985,27.79 57.65,27.7200007 57.65,27.58 C57.65,27.4599994 58.1699948,27.3800002 59.21,27.34 C60.2500052,27.2999998 60.9499982,27.2100007 61.31,27.07 C61.4700008,27.0299998 61.5599999,27.01 61.58,27.01 C61.7000006,27.01 61.76,27.0699994 61.76,27.19 C61.76,27.2900005 61.6300013,27.6599968 61.37,28.3 L60.26,31 C62.1000092,28.4399872 63.719993,27.16 65.12,27.16 C66.1000049,27.16 66.59,27.5999956 66.59,28.48 Z M84.44,29.38 C84.44,29.9200027 84.1900025,30.7599943 83.69,31.9 L81.47,36.94 C81.1099982,37.7600041 80.93,38.3499982 80.93,38.71 C80.93,39.110002 81.1599977,39.31 81.62,39.31 C82.3200035,39.31 82.9999967,38.9400037 83.66,38.2 C83.9000012,37.9399987 84.0899993,37.81 84.23,37.81 C84.3500006,37.81 84.41,37.8499996 84.41,37.93 C84.41,38.1700012 84.0700034,38.5299976 83.39,39.01 C82.389995,39.7300036 81.4700042,40.09 80.63,40.09 C80.0699972,40.09 79.6150017,39.9450014 79.265,39.655 C78.9149982,39.3649985 78.74,38.9900023 78.74,38.53 C78.74,38.0299975 78.9599978,37.2700051 79.4,36.25 L81.59,31.18 C82.1100026,29.979994 82.37,29.2000018 82.37,28.84 C82.37,28.1399965 82.070003,27.79 81.47,27.79 C80.5299953,27.79 79.5200054,28.4599933 78.44,29.8 C77.7399965,30.6600043 76.8500054,32.3599873 75.77,34.9 L73.97,39.13 C73.6899986,39.7900033 73.4800007,40.12 73.34,40.12 C73.2399995,40.12 73.1600003,40.1100001 73.1,40.09 C72.7999985,40.0499998 72.5400011,40.03 72.32,40.03 C72.1999994,40.03 72.035001,40.0449998 71.825,40.075 C71.6149989,40.1050002 71.4600005,40.12 71.36,40.12 C71.2199993,40.12 71.15,40.0700005 71.15,39.97 C71.15,39.9099997 71.1899996,39.8000008 71.27,39.64 C71.3500004,39.4799992 71.4599993,39.2500015 71.6,38.95 L74.72,31.54 C75.3800033,29.9799922 75.71,28.9600024 75.71,28.48 C75.71,27.9199972 75.410003,27.64 74.81,27.64 C74.0299961,27.64 73.0700057,28.2899935 71.93,29.59 C71.5899983,29.990002 71.0600036,30.689995 70.34,31.69 C70.0799987,32.0500018 69.7100024,32.7999943 69.23,33.94 L66.98,39.22 C66.7399988,39.7800028 66.5600006,40.06 66.44,40.06 C66.3399995,40.06 66.2600003,40.0500001 66.2,40.03 C65.8799984,39.9899998 65.6900003,39.97 65.63,39.97 C65.0099969,39.97 64.6400006,39.9999997 64.52,40.06 C64.4799998,40.0800001 64.4200004,40.09 64.34,40.09 C64.2399995,40.09 64.19,40.0400005 64.19,39.94 C64.2900005,39.7199989 64.4099993,39.4800013 64.55,39.22 L69.29,28.21 C69.3500003,28.1099995 69.38,28.0400002 69.38,28 C69.38,27.8199991 69.2000018,27.73 68.84,27.73 C68.2799972,27.73 68,27.630001 68,27.43 C68,27.2899993 68.099999,27.22 68.3,27.22 C68.4800009,27.22 68.7599981,27.2399998 69.14,27.28 C69.5200019,27.3200002 69.7999991,27.34 69.98,27.34 C70.8800045,27.34 71.4499988,27.2700007 71.69,27.13 L71.87,27.07 C71.9900006,27.07 72.05,27.1399993 72.05,27.28 C72.05,27.3200002 71.9600009,27.539998 71.78,27.94 C71.6399993,28.2200014 71.4500012,28.7099965 71.21,29.41 L71.06,29.83 C71.2400009,29.629999 71.6199971,29.2100032 72.2,28.57 C73.1000045,27.5499949 74.1999935,27.04 75.5,27.04 C76.3200041,27.04 76.8999983,27.2499979 77.24,27.67 C77.5800017,28.0900021 77.7699998,28.8299947 77.81,29.89 C79.0900064,28.0099906 80.4699926,27.07 81.95,27.07 C82.7100038,27.07 83.3149978,27.2799979 83.765,27.7 C84.2150022,28.1200021 84.44,28.6799965 84.44,29.38 Z M100.52,20.71 C100.52,21.4900039 100.150004,21.88 99.41,21.88 C99.1499987,21.88 98.9250009,21.7950009 98.735,21.625 C98.5449991,21.4549991 98.45,21.2600011 98.45,21.04 C98.45,20.8799992 98.5799987,20.6500015 98.84,20.35 C98.9200004,20.1899992 98.96,20.0600005 98.96,19.96 C98.96,19.4599975 98.5400042,19.21 97.7,19.21 C96.8199956,19.21 96.1100027,19.5849963 95.57,20.335 C95.0299973,21.0850037 94.3500041,22.6099885 93.53,24.91 L92.72,27.19 L95.81,27.19 C95.9100005,27.1699999 96.0399992,27.16 96.2,27.16 C96.4200011,27.16 96.53,27.2699989 96.53,27.49 C96.53,27.7100011 96.3900014,27.82 96.11,27.82 L92.6,27.79 L89.99,34.93 C88.1099906,40.0700257 86.2800089,43.6599898 84.5,45.7 C83.7799964,46.5200041 83.1150031,47.0949983 82.505,47.425 C81.894997,47.7550016 81.1700042,47.92 80.33,47.92 C78.6299915,47.92 77.78,47.3500057 77.78,46.21 C77.78,45.3899959 78.2199956,44.98 79.1,44.98 C79.700003,44.98 80,45.2299975 80,45.73 C80,45.8900008 79.900001,46.0999987 79.7,46.36 C79.5799994,46.5000007 79.52,46.6299994 79.52,46.75 C79.52,47.1900022 79.819997,47.41 80.42,47.41 C81.4600052,47.41 82.3499963,46.910005 83.09,45.91 C83.6700029,45.109996 84.4299953,43.3800133 85.37,40.72 L89.9,27.85 L89.21,27.85 L87.71,27.88 C87.5499992,27.9000001 87.370001,27.91 87.17,27.91 C86.9299988,27.91 86.81,27.8300008 86.81,27.67 C86.81,27.3699985 87.0599975,27.1900003 87.56,27.13 C87.6000002,27.13 87.9599966,27.1399999 88.64,27.16 L89.72,27.19 L90.14,27.19 C91.340006,24.3299857 92.3199962,22.3800052 93.08,21.34 C94.3400063,19.6399915 95.9299904,18.79 97.85,18.79 C98.650004,18.79 99.2949976,18.9649983 99.785,19.315 C100.275002,19.6650018 100.52,20.1299971 100.52,20.71 Z M106.61,31.93 C106.61,34.2700117 105.540011,36.3799906 103.4,38.26 C101.719992,39.7400074 99.9700091,40.48 98.15,40.48 C96.9099938,40.48 95.890004,40.0500043 95.09,39.19 C94.289996,38.3299957 93.89,37.2200068 93.89,35.86 C93.89,34.6999942 94.2199967,33.5100061 94.88,32.29 C95.5400033,31.0699939 96.4199945,30.0300043 97.52,29.17 C99.2400086,27.8299933 100.899992,27.16 102.5,27.16 C103.720006,27.16 104.709996,27.5999956 105.47,28.48 C106.230004,29.3600044 106.61,30.5099929 106.61,31.93 Z M104.3,29.98 C104.3,28.4599924 103.620007,27.7 102.26,27.7 C100.599992,27.7 99.1600061,28.8899881 97.94,31.27 C96.7799942,33.5500114 96.2,35.68999 96.2,37.69 C96.2,39.1900075 96.8699933,39.94 98.21,39.94 C99.8900084,39.94 101.289994,38.8600108 102.41,36.7 C103.670006,34.2599878 104.3,32.0200102 104.3,29.98 Z M119.36,28.48 C119.36,28.880002 119.230001,29.2249986 118.97,29.515 C118.709999,29.8050014 118.410002,29.95 118.07,29.95 C117.749998,29.95 117.59,29.8400011 117.59,29.62 L117.65,29.32 C117.69,29.1999994 117.71,29.0900005 117.71,28.99 C117.71,28.5099976 117.470002,28.27 116.99,28.27 C116.409997,28.27 115.600005,28.8299944 114.56,29.95 C113.519995,31.0700056 112.540005,32.6399899 111.62,34.66 L109.46,39.4 C109.259999,39.8600023 109.090001,40.09 108.95,40.09 C108.549998,40.0299997 108.240001,40 108.02,40 C107.679998,40 107.410001,40.0199998 107.21,40.06 L107.03,40.06 C106.849999,40.06 106.76,40.0200004 106.76,39.94 C106.76,39.9199999 106.79,39.8800003 106.85,39.82 L107,39.52 L112.07,28 C112.07,27.8399992 111.940001,27.76 111.68,27.76 L111.56,27.76 C111.48,27.7800001 111.350001,27.79 111.17,27.79 L110.87,27.79 C110.569998,27.79 110.42,27.7200007 110.42,27.58 C110.42,27.4599994 110.939995,27.3800002 111.98,27.34 C113.020005,27.2999998 113.719998,27.2100007 114.08,27.07 C114.240001,27.0299998 114.33,27.01 114.35,27.01 C114.470001,27.01 114.53,27.0699994 114.53,27.19 C114.53,27.2900005 114.400001,27.6599968 114.14,28.3 L113.03,31 C114.870009,28.4399872 116.489993,27.16 117.89,27.16 C118.870005,27.16 119.36,27.5999956 119.36,28.48 Z M137.21,29.38 C137.21,29.9200027 136.960002,30.7599943 136.46,31.9 L134.24,36.94 C133.879998,37.7600041 133.7,38.3499982 133.7,38.71 C133.7,39.110002 133.929998,39.31 134.39,39.31 C135.090003,39.31 135.769997,38.9400037 136.43,38.2 C136.670001,37.9399987 136.859999,37.81 137,37.81 C137.120001,37.81 137.18,37.8499996 137.18,37.93 C137.18,38.1700012 136.840003,38.5299976 136.16,39.01 C135.159995,39.7300036 134.240004,40.09 133.4,40.09 C132.839997,40.09 132.385002,39.9450014 132.035,39.655 C131.684998,39.3649985 131.51,38.9900023 131.51,38.53 C131.51,38.0299975 131.729998,37.2700051 132.17,36.25 L134.36,31.18 C134.880003,29.979994 135.14,29.2000018 135.14,28.84 C135.14,28.1399965 134.840003,27.79 134.24,27.79 C133.299995,27.79 132.290005,28.4599933 131.21,29.8 C130.509996,30.6600043 129.620005,32.3599873 128.54,34.9 L126.74,39.13 C126.459999,39.7900033 126.250001,40.12 126.11,40.12 C126.009999,40.12 125.93,40.1100001 125.87,40.09 C125.569998,40.0499998 125.310001,40.03 125.09,40.03 C124.969999,40.03 124.805001,40.0449998 124.595,40.075 C124.384999,40.1050002 124.23,40.12 124.13,40.12 C123.989999,40.12 123.92,40.0700005 123.92,39.97 C123.92,39.9099997 123.96,39.8000008 124.04,39.64 C124.12,39.4799992 124.229999,39.2500015 124.37,38.95 L127.49,31.54 C128.150003,29.9799922 128.48,28.9600024 128.48,28.48 C128.48,27.9199972 128.180003,27.64 127.58,27.64 C126.799996,27.64 125.840006,28.2899935 124.7,29.59 C124.359998,29.990002 123.830004,30.689995 123.11,31.69 C122.849999,32.0500018 122.480002,32.7999943 122,33.94 L119.75,39.22 C119.509999,39.7800028 119.330001,40.06 119.21,40.06 C119.109999,40.06 119.03,40.0500001 118.97,40.03 C118.649998,39.9899998 118.46,39.97 118.4,39.97 C117.779997,39.97 117.410001,39.9999997 117.29,40.06 C117.25,40.0800001 117.19,40.09 117.11,40.09 C117.009999,40.09 116.96,40.0400005 116.96,39.94 C117.06,39.7199989 117.179999,39.4800013 117.32,39.22 L122.06,28.21 C122.12,28.1099995 122.15,28.0400002 122.15,28 C122.15,27.8199991 121.970002,27.73 121.61,27.73 C121.049997,27.73 120.77,27.630001 120.77,27.43 C120.77,27.2899993 120.869999,27.22 121.07,27.22 C121.250001,27.22 121.529998,27.2399998 121.91,27.28 C122.290002,27.3200002 122.569999,27.34 122.75,27.34 C123.650004,27.34 124.219999,27.2700007 124.46,27.13 L124.64,27.07 C124.760001,27.07 124.82,27.1399993 124.82,27.28 C124.82,27.3200002 124.730001,27.539998 124.55,27.94 C124.409999,28.2200014 124.220001,28.7099965 123.98,29.41 L123.83,29.83 C124.010001,29.629999 124.389997,29.2100032 124.97,28.57 C125.870004,27.5499949 126.969993,27.04 128.27,27.04 C129.090004,27.04 129.669998,27.2499979 130.01,27.67 C130.350002,28.0900021 130.54,28.8299947 130.58,29.89 C131.860006,28.0099906 133.239993,27.07 134.72,27.07 C135.480004,27.07 136.084998,27.2799979 136.535,27.7 C136.985002,28.1200021 137.21,28.6799965 137.21,29.38 Z" id="Normform"></path>
            </g>
        </g>
    </g>
</svg>